<svg xmlns="http://www.w3.org/2000/svg" width="178" height="178" viewBox="0 0 178 178"><defs><style>.a{fill:#1c1a1a;}.b{fill:#fff;}</style></defs><g transform="translate(-980 -409)"><rect class="a" width="178" height="178" transform="translate(980 409)"/><path class="b" d="M75.492,195.613a58.679,58.679,0,0,1-21.777,4.306,35.841,35.841,0,0,1-20.278-5.905A38.511,38.511,0,0,1,19.82,177.447a60.472,60.472,0,0,1-4.789-24.727,60.472,60.472,0,0,1,4.789-24.728,38.668,38.668,0,0,1,13.574-16.567,35.446,35.446,0,0,1,20.2-5.864,50.908,50.908,0,0,1,17.28,3.157,42.709,42.709,0,0,1,14.49,8.243l.167.123,1.166-1.476-.125-.123A45.482,45.482,0,0,0,70.162,105.6a60.829,60.829,0,0,0-20.736-3.732c-9.744,0-18.446,2.132-25.858,6.315A44.231,44.231,0,0,0,6.2,126.105C2.082,133.774,0,142.754,0,152.719c0,10.006,2.082,18.945,6.2,26.614a44.232,44.232,0,0,0,17.364,17.92c7.412,4.224,16.114,6.356,25.858,6.356a68.816,68.816,0,0,0,22.235-3.773c7.37-2.5,13.408-5.823,17.863-9.842l.083-.082V149.48H75.492v46.133Z" transform="translate(1009 327.213)"/><path class="b" d="M79.189,189.3l-37.1-86.978-.044-.129H26.61L72.48,207.825l.044.13h2.149l43.545-105.462.132-.3h-3.464Z" transform="translate(1011.093 358.811)"/></g></svg>