<svg xmlns="http://www.w3.org/2000/svg" width="170.001" height="170.001" viewBox="0 0 170.001 170.001"><defs><style>.a{fill:#d5d3d3;}.b{fill:#9b9594;}</style></defs><g transform="translate(-980 -1286)"><rect class="a" width="170" height="170" transform="translate(980 1286)"/><path class="b" d="M14275,11863h-22v-.011c0-.162,0-.325,0-.487,0-17.256-4.724-30.571-14.04-39.575-10.246-9.9-26.382-14.926-47.959-14.926s-37.716,5.021-47.961,14.926c-9.315,9-14.039,22.318-14.039,39.575,0,.166,0,.332,0,.5h-24v-170h170v170Zm-84.5-135a37.5,37.5,0,1,0,37.5,37.5A37.546,37.546,0,0,0,14190.5,11728Z" transform="translate(-13125 -10407)"/></g></svg>