<svg xmlns="http://www.w3.org/2000/svg" width="237.579" height="86.24" viewBox="0 0 237.579 86.24"><defs><style>.a{opacity:0.29;}.b{fill:none;stroke:#1c1a1a;}</style></defs><g transform="translate(-1210.358 -1176.113)"><g class="a" transform="translate(1210.711 1176.82)"><path class="b" d="M2611.292,7568.6l14.961-14.961,14.961,14.961" transform="translate(-2611.292 -7553.637)"/><path class="b" d="M2611.292,7568.6l14.961-14.961,14.961,14.961" transform="translate(-2493.035 -7553.637)"/><path class="b" d="M2611.292,7568.6l14.961-14.961,14.961,14.961" transform="translate(-2552.164 -7553.637)"/><path class="b" d="M2611.292,7568.6l14.961-14.961,14.961,14.961" transform="translate(-2433.907 -7553.637)"/><path class="b" d="M2611.292,7568.6l14.961-14.961,14.961,14.961" transform="translate(-2581.728 -7553.637)"/><path class="b" d="M2611.292,7568.6l14.961-14.961,14.961,14.961" transform="translate(-2463.471 -7553.637)"/><path class="b" d="M2611.292,7568.6l14.961-14.961,14.961,14.961" transform="translate(-2522.599 -7553.637)"/><path class="b" d="M2611.292,7568.6l14.961-14.961,14.961,14.961" transform="translate(-2404.343 -7553.637)"/></g><g class="a" transform="translate(1210.711 1214.82)"><path class="b" d="M2611.292,7568.6l14.961-14.961,14.961,14.961" transform="translate(-2611.292 -7553.637)"/><path class="b" d="M2611.292,7568.6l14.961-14.961,14.961,14.961" transform="translate(-2493.035 -7553.637)"/><path class="b" d="M2611.292,7568.6l14.961-14.961,14.961,14.961" transform="translate(-2552.164 -7553.637)"/><path class="b" d="M2611.292,7568.6l14.961-14.961,14.961,14.961" transform="translate(-2433.907 -7553.637)"/><path class="b" d="M2611.292,7568.6l14.961-14.961,14.961,14.961" transform="translate(-2581.728 -7553.637)"/><path class="b" d="M2611.292,7568.6l14.961-14.961,14.961,14.961" transform="translate(-2463.471 -7553.637)"/><path class="b" d="M2611.292,7568.6l14.961-14.961,14.961,14.961" transform="translate(-2522.599 -7553.637)"/><path class="b" d="M2611.292,7568.6l14.961-14.961,14.961,14.961" transform="translate(-2404.343 -7553.637)"/></g><g class="a" transform="translate(1210.711 1196.151)"><path class="b" d="M2611.292,7568.6l14.961-14.961,14.961,14.961" transform="translate(-2611.292 -7553.637)"/><path class="b" d="M2611.292,7568.6l14.961-14.961,14.961,14.961" transform="translate(-2493.035 -7553.637)"/><path class="b" d="M2611.292,7568.6l14.961-14.961,14.961,14.961" transform="translate(-2552.164 -7553.637)"/><path class="b" d="M2611.292,7568.6l14.961-14.961,14.961,14.961" transform="translate(-2433.907 -7553.637)"/><path class="b" d="M2611.292,7568.6l14.961-14.961,14.961,14.961" transform="translate(-2581.728 -7553.637)"/><path class="b" d="M2611.292,7568.6l14.961-14.961,14.961,14.961" transform="translate(-2463.471 -7553.637)"/><path class="b" d="M2611.292,7568.6l14.961-14.961,14.961,14.961" transform="translate(-2522.599 -7553.637)"/><path class="b" d="M2611.292,7568.6l14.961-14.961,14.961,14.961" transform="translate(-2404.343 -7553.637)"/></g><g class="a" transform="translate(1210.711 1234.151)"><path class="b" d="M2611.292,7568.6l14.961-14.961,14.961,14.961" transform="translate(-2611.292 -7553.637)"/><path class="b" d="M2611.292,7568.6l14.961-14.961,14.961,14.961" transform="translate(-2493.035 -7553.637)"/><path class="b" d="M2611.292,7568.6l14.961-14.961,14.961,14.961" transform="translate(-2552.164 -7553.637)"/><path class="b" d="M2611.292,7568.6l14.961-14.961,14.961,14.961" transform="translate(-2433.907 -7553.637)"/><path class="b" d="M2611.292,7568.6l14.961-14.961,14.961,14.961" transform="translate(-2581.728 -7553.637)"/><path class="b" d="M2611.292,7568.6l14.961-14.961,14.961,14.961" transform="translate(-2463.471 -7553.637)"/><path class="b" d="M2611.292,7568.6l14.961-14.961,14.961,14.961" transform="translate(-2522.599 -7553.637)"/><path class="b" d="M2611.292,7568.6l14.961-14.961,14.961,14.961" transform="translate(-2404.343 -7553.637)"/></g><g class="a" transform="translate(1210.711 1183.265)"><path class="b" d="M2611.292,7568.6l14.961-14.961,14.961,14.961" transform="translate(-2611.292 -7553.637)"/><path class="b" d="M2611.292,7568.6l14.961-14.961,14.961,14.961" transform="translate(-2493.035 -7553.637)"/><path class="b" d="M2611.292,7568.6l14.961-14.961,14.961,14.961" transform="translate(-2552.164 -7553.637)"/><path class="b" d="M2611.292,7568.6l14.961-14.961,14.961,14.961" transform="translate(-2433.907 -7553.637)"/><path class="b" d="M2611.292,7568.6l14.961-14.961,14.961,14.961" transform="translate(-2581.728 -7553.637)"/><path class="b" d="M2611.292,7568.6l14.961-14.961,14.961,14.961" transform="translate(-2463.471 -7553.637)"/><path class="b" d="M2611.292,7568.6l14.961-14.961,14.961,14.961" transform="translate(-2522.599 -7553.637)"/><path class="b" d="M2611.292,7568.6l14.961-14.961,14.961,14.961" transform="translate(-2404.343 -7553.637)"/></g><g class="a" transform="translate(1210.711 1221.265)"><path class="b" d="M2611.292,7568.6l14.961-14.961,14.961,14.961" transform="translate(-2611.292 -7553.637)"/><path class="b" d="M2611.292,7568.6l14.961-14.961,14.961,14.961" transform="translate(-2493.035 -7553.637)"/><path class="b" d="M2611.292,7568.6l14.961-14.961,14.961,14.961" transform="translate(-2552.164 -7553.637)"/><path class="b" d="M2611.292,7568.6l14.961-14.961,14.961,14.961" transform="translate(-2433.907 -7553.637)"/><path class="b" d="M2611.292,7568.6l14.961-14.961,14.961,14.961" transform="translate(-2581.728 -7553.637)"/><path class="b" d="M2611.292,7568.6l14.961-14.961,14.961,14.961" transform="translate(-2463.471 -7553.637)"/><path class="b" d="M2611.292,7568.6l14.961-14.961,14.961,14.961" transform="translate(-2522.599 -7553.637)"/><path class="b" d="M2611.292,7568.6l14.961-14.961,14.961,14.961" transform="translate(-2404.343 -7553.637)"/></g><g class="a" transform="translate(1210.711 1202.596)"><path class="b" d="M2611.292,7568.6l14.961-14.961,14.961,14.961" transform="translate(-2611.292 -7553.637)"/><path class="b" d="M2611.292,7568.6l14.961-14.961,14.961,14.961" transform="translate(-2493.035 -7553.637)"/><path class="b" d="M2611.292,7568.6l14.961-14.961,14.961,14.961" transform="translate(-2552.164 -7553.637)"/><path class="b" d="M2611.292,7568.6l14.961-14.961,14.961,14.961" transform="translate(-2433.907 -7553.637)"/><path class="b" d="M2611.292,7568.6l14.961-14.961,14.961,14.961" transform="translate(-2581.728 -7553.637)"/><path class="b" d="M2611.292,7568.6l14.961-14.961,14.961,14.961" transform="translate(-2463.471 -7553.637)"/><path class="b" d="M2611.292,7568.6l14.961-14.961,14.961,14.961" transform="translate(-2522.599 -7553.637)"/><path class="b" d="M2611.292,7568.6l14.961-14.961,14.961,14.961" transform="translate(-2404.343 -7553.637)"/></g><g class="a" transform="translate(1210.711 1240.596)"><path class="b" d="M2611.292,7568.6l14.961-14.961,14.961,14.961" transform="translate(-2611.292 -7553.637)"/><path class="b" d="M2611.292,7568.6l14.961-14.961,14.961,14.961" transform="translate(-2493.035 -7553.637)"/><path class="b" d="M2611.292,7568.6l14.961-14.961,14.961,14.961" transform="translate(-2552.164 -7553.637)"/><path class="b" d="M2611.292,7568.6l14.961-14.961,14.961,14.961" transform="translate(-2433.907 -7553.637)"/><path class="b" d="M2611.292,7568.6l14.961-14.961,14.961,14.961" transform="translate(-2581.728 -7553.637)"/><path class="b" d="M2611.292,7568.6l14.961-14.961,14.961,14.961" transform="translate(-2463.471 -7553.637)"/><path class="b" d="M2611.292,7568.6l14.961-14.961,14.961,14.961" transform="translate(-2522.599 -7553.637)"/><path class="b" d="M2611.292,7568.6l14.961-14.961,14.961,14.961" transform="translate(-2404.343 -7553.637)"/></g><g class="a" transform="translate(1210.711 1189.708)"><path class="b" d="M2611.292,7568.6l14.961-14.961,14.961,14.961" transform="translate(-2611.292 -7553.637)"/><path class="b" d="M2611.292,7568.6l14.961-14.961,14.961,14.961" transform="translate(-2493.035 -7553.637)"/><path class="b" d="M2611.292,7568.6l14.961-14.961,14.961,14.961" transform="translate(-2552.164 -7553.637)"/><path class="b" d="M2611.292,7568.6l14.961-14.961,14.961,14.961" transform="translate(-2433.907 -7553.637)"/><path class="b" d="M2611.292,7568.6l14.961-14.961,14.961,14.961" transform="translate(-2581.728 -7553.637)"/><path class="b" d="M2611.292,7568.6l14.961-14.961,14.961,14.961" transform="translate(-2463.471 -7553.637)"/><path class="b" d="M2611.292,7568.6l14.961-14.961,14.961,14.961" transform="translate(-2522.599 -7553.637)"/><path class="b" d="M2611.292,7568.6l14.961-14.961,14.961,14.961" transform="translate(-2404.343 -7553.637)"/></g><g class="a" transform="translate(1210.711 1227.708)"><path class="b" d="M2611.292,7568.6l14.961-14.961,14.961,14.961" transform="translate(-2611.292 -7553.637)"/><path class="b" d="M2611.292,7568.6l14.961-14.961,14.961,14.961" transform="translate(-2493.035 -7553.637)"/><path class="b" d="M2611.292,7568.6l14.961-14.961,14.961,14.961" transform="translate(-2552.164 -7553.637)"/><path class="b" d="M2611.292,7568.6l14.961-14.961,14.961,14.961" transform="translate(-2433.907 -7553.637)"/><path class="b" d="M2611.292,7568.6l14.961-14.961,14.961,14.961" transform="translate(-2581.728 -7553.637)"/><path class="b" d="M2611.292,7568.6l14.961-14.961,14.961,14.961" transform="translate(-2463.471 -7553.637)"/><path class="b" d="M2611.292,7568.6l14.961-14.961,14.961,14.961" transform="translate(-2522.599 -7553.637)"/><path class="b" d="M2611.292,7568.6l14.961-14.961,14.961,14.961" transform="translate(-2404.343 -7553.637)"/></g><g class="a" transform="translate(1210.711 1209.039)"><path class="b" d="M2611.292,7568.6l14.961-14.961,14.961,14.961" transform="translate(-2611.292 -7553.637)"/><path class="b" d="M2611.292,7568.6l14.961-14.961,14.961,14.961" transform="translate(-2493.035 -7553.637)"/><path class="b" d="M2611.292,7568.6l14.961-14.961,14.961,14.961" transform="translate(-2552.164 -7553.637)"/><path class="b" d="M2611.292,7568.6l14.961-14.961,14.961,14.961" transform="translate(-2433.907 -7553.637)"/><path class="b" d="M2611.292,7568.6l14.961-14.961,14.961,14.961" transform="translate(-2581.728 -7553.637)"/><path class="b" d="M2611.292,7568.6l14.961-14.961,14.961,14.961" transform="translate(-2463.471 -7553.637)"/><path class="b" d="M2611.292,7568.6l14.961-14.961,14.961,14.961" transform="translate(-2522.599 -7553.637)"/><path class="b" d="M2611.292,7568.6l14.961-14.961,14.961,14.961" transform="translate(-2404.343 -7553.637)"/></g><g class="a" transform="translate(1210.711 1247.039)"><path class="b" d="M2611.292,7568.6l14.961-14.961,14.961,14.961" transform="translate(-2611.292 -7553.637)"/><path class="b" d="M2611.292,7568.6l14.961-14.961,14.961,14.961" transform="translate(-2493.035 -7553.637)"/><path class="b" d="M2611.292,7568.6l14.961-14.961,14.961,14.961" transform="translate(-2552.164 -7553.637)"/><path class="b" d="M2611.292,7568.6l14.961-14.961,14.961,14.961" transform="translate(-2433.907 -7553.637)"/><path class="b" d="M2611.292,7568.6l14.961-14.961,14.961,14.961" transform="translate(-2581.728 -7553.637)"/><path class="b" d="M2611.292,7568.6l14.961-14.961,14.961,14.961" transform="translate(-2463.471 -7553.637)"/><path class="b" d="M2611.292,7568.6l14.961-14.961,14.961,14.961" transform="translate(-2522.599 -7553.637)"/><path class="b" d="M2611.292,7568.6l14.961-14.961,14.961,14.961" transform="translate(-2404.343 -7553.637)"/></g></g></svg>