<svg xmlns="http://www.w3.org/2000/svg" width="50" height="37.8" viewBox="0 0 50 37.8"><defs><style>.a{fill:#9b9594;}</style></defs><path class="a" d="M42.915,49.15a3.88,3.88,0,0,0,3.835,3.9,6.61,6.61,0,0,1,0,13.2c-9.233,0-15.909-11.1-15.909-24.9,0-6.6,4.545-12.9,10.227-12.9A10.278,10.278,0,0,1,51.3,38.8,10.441,10.441,0,0,1,42.915,49.15Zm-27.841,0a3.88,3.88,0,0,0,3.835,3.9,6.61,6.61,0,0,1,0,13.2C9.676,66.25,3,55.15,3,41.35c0-6.6,4.545-12.9,10.227-12.9A10.278,10.278,0,0,1,23.455,38.8,10.441,10.441,0,0,1,15.074,49.15Z" transform="translate(-3 -28.45)"/></svg>