<svg xmlns="http://www.w3.org/2000/svg" width="158.048" height="39" viewBox="0 0 158.048 39"><defs><style>.a,.b{fill:#1c1a1a;}.a{opacity:0;}</style></defs><rect class="a" width="158" height="39"/><g transform="translate(0 0.072)"><path class="b" d="M24.59,145.728l.677-.309a1.775,1.775,0,0,0,1.765.872c.83,0,1.209-.182,1.209-.578,0-.317-.226-.467-.822-.523L26.2,145.07c-.919-.087-1.346-.428-1.346-1.086,0-.737.709-1.165,1.983-1.165a2.323,2.323,0,0,1,2.209.982l-.621.357a1.651,1.651,0,0,0-1.62-.745c-.742,0-1.137.182-1.137.531,0,.317.2.436.814.5l1.137.111c1.024.1,1.451.412,1.451,1.086,0,.808-.726,1.244-2.064,1.244C25.751,146.885,24.929,146.489,24.59,145.728Z" transform="translate(-4.766 -110.374)"/><path class="b" d="M33.767,144.876l-1.113.919v.99H31.84v-3.8h.814v1.981l2.459-1.981h1.048L34.4,144.4l1.911,2.385h-.992Z" transform="translate(-6.172 -110.409)"/><path class="b" d="M38.92,142.99h.806v3.8H38.92Z" transform="translate(-7.544 -110.409)"/><path class="b" d="M46.3,144.781h1.588c.613,0,.8-.317.8-.618s-.177-.594-.79-.594H46.3Zm1.443.563H46.3v1.442H45.49v-3.8h2.58c1.145,0,1.475.618,1.475,1.157a1.113,1.113,0,0,1-.927,1.1l1.072,1.537h-.935l-1.008-1.442Z" transform="translate(-8.818 -110.409)"/><path class="b" d="M56.173,146.191v.594H52.36v-3.8h3.773v.594H53.174v.983h2.862v.57H53.174v1.054Z" transform="translate(-10.149 -110.409)"/><path class="b" d="M58.31,145.728l.677-.309a1.775,1.775,0,0,0,1.765.872c.83,0,1.209-.182,1.209-.578,0-.317-.226-.467-.83-.523l-1.217-.119c-.911-.087-1.346-.428-1.346-1.086,0-.737.717-1.165,1.991-1.165a2.323,2.323,0,0,1,2.209.982l-.629.357a1.637,1.637,0,0,0-1.612-.745c-.742,0-1.137.182-1.137.531,0,.317.2.436.814.5l1.137.111c1.016.1,1.451.412,1.451,1.086,0,.808-.726,1.244-2.072,1.244C59.471,146.885,58.649,146.489,58.31,145.728Z" transform="translate(-11.303 -110.374)"/><path class="b" d="M69.321,144.856c0-.848-.693-1.418-1.717-1.418s-1.709.571-1.709,1.418.693,1.41,1.709,1.41S69.321,145.7,69.321,144.856Zm-4.281,0c0-1.22,1.024-2.036,2.564-2.036s2.572.816,2.572,2.036-1.032,2.028-2.572,2.028S65.04,146.076,65.04,144.856Z" transform="translate(-12.607 -110.373)"/><path class="b" d="M73.784,144.781h1.588c.613,0,.8-.317.8-.618s-.177-.594-.8-.594H73.784Zm1.435.563H73.784v1.442H72.97v-3.8h2.572c1.153,0,1.483.618,1.483,1.157a1.113,1.113,0,0,1-.935,1.1l1.08,1.537h-.935Z" transform="translate(-14.144 -110.409)"/><path class="b" d="M83.293,143.624H81.559v3.161h-.806v-3.161H79.02v-.634h4.273Z" transform="translate(-15.317 -110.409)"/><path class="b" d="M109.53,145.728l.677-.309a1.775,1.775,0,0,0,1.766.872c.83,0,1.209-.182,1.209-.578,0-.317-.226-.467-.822-.523l-1.217-.119c-.919-.087-1.346-.428-1.346-1.086,0-.737.709-1.165,1.983-1.165a2.323,2.323,0,0,1,2.209.982l-.621.357a1.651,1.651,0,0,0-1.62-.745c-.742,0-1.137.182-1.137.531,0,.317.2.436.814.5l1.137.111c1.024.1,1.451.412,1.451,1.086,0,.808-.726,1.244-2.064,1.244-1.258,0-2.08-.4-2.418-1.157Z" transform="translate(-21.231 -110.374)"/><path class="b" d="M120,144.226c0-.42-.306-.658-.838-.658h-1.564v1.339h1.556C119.682,144.908,120,144.654,120,144.226Zm.855-.008c0,.769-.629,1.268-1.6,1.268h-1.661v1.3h-.814v-3.8h2.556c.935,0,1.516.467,1.516,1.228Z" transform="translate(-22.636 -110.409)"/><path class="b" d="M125.571,145.423l-.5-.975a5.1,5.1,0,0,1-.443-.943h-.016a5.1,5.1,0,0,1-.443.943l-.5.975h1.9Zm.3.563h-2.5l-.411.8h-.879l2.064-3.8h.951l2.064,3.8h-.879Z" transform="translate(-23.664 -110.409)"/><path class="b" d="M136.557,144.226c0-.42-.3-.658-.838-.658h-1.564v1.339h1.564C136.242,144.908,136.557,144.654,136.557,144.226Zm.855-.008c0,.769-.629,1.268-1.6,1.268h-1.661v1.3h-.814v-3.8H135.9C136.839,142.99,137.411,143.457,137.411,144.218Z" transform="translate(-25.846 -110.409)"/><path class="b" d="M142.139,145.423l-.5-.975a5.837,5.837,0,0,1-.451-.943h-.016a5.093,5.093,0,0,1-.443.943l-.5.975Zm.29.563h-2.5l-.411.8h-.879l2.064-3.8h.951l2.064,3.8h-.871Z" transform="translate(-26.874 -110.409)"/><path class="b" d="M146.43,142.99h.814v3.154h2.8v.642H146.43Z" transform="translate(-28.384 -110.409)"/><path class="b" d="M155.581,145.423l-.5-.975a5.1,5.1,0,0,1-.443-.943h-.016a5.216,5.216,0,0,1-.451.943l-.5.975Zm.3.563h-2.5l-.411.8h-.879l2.064-3.8h.951l2.064,3.8h-.879Z" transform="translate(-29.481 -110.409)"/><path class="b" d="M159.04,144.856c0-1.2,1.032-2.036,2.548-2.036a2.2,2.2,0,0,1,2.362,1.434l-.855.119a1.4,1.4,0,0,0-1.524-.927c-1.04,0-1.685.539-1.685,1.41,0,.84.669,1.4,1.7,1.4a1.442,1.442,0,0,0,1.524-.872l.822.158a2.3,2.3,0,0,1-2.386,1.339C160.015,146.885,159.04,146.084,159.04,144.856Z" transform="translate(-30.828 -110.373)"/><path class="b" d="M170.545,146.191v.594H166.74v-3.8H170.5v.594h-2.959v.983h2.87v.57h-2.87v1.054Z" transform="translate(-32.321 -110.409)"/><path class="b" d="M90.368,147.833c-.6,0-.814-.143-.814-.5,0-.792,1.121-1.854,3.636-3.407a3.76,3.76,0,0,0,1.153,2.678l.089.087A10.483,10.483,0,0,1,90.368,147.833Zm5.313-7.559a4.307,4.307,0,0,1,2.636-1c.331,0,.419.087.419.293,0,.349-.967,1.062-3.757,2.734l-1.209.705A5.183,5.183,0,0,1,95.681,140.274Zm4.845,3.209-.306-.357a26.38,26.38,0,0,1-4.668,3.035,4.771,4.771,0,0,0-.637.325l-.242-.206a3.421,3.421,0,0,1-1-2.536v-.119l1.58-.935c3.241-1.949,3.878-2.417,3.966-3.122,0-.475-.3-.769-.9-.769a5.133,5.133,0,0,0-2.91,1.093,5.265,5.265,0,0,0-2.185,3.47c-2.185,1.323-4.152,2.734-4.152,3.97,0,.618.451.975,1.3.975a11.31,11.31,0,0,0,4.49-1.268,7.824,7.824,0,0,0,4.361,1.181v-.475a7.453,7.453,0,0,1-3.878-.967l.427-.206A27.378,27.378,0,0,0,100.526,143.483Z" transform="translate(-17.265 -109.539)"/><path class="b" d="M98.3,139.322a4.217,4.217,0,0,0-2.6.99h0a5.2,5.2,0,0,0-1.846,2.543l1.072-.626c2.3-1.387,3.724-2.314,3.724-2.678C98.654,139.417,98.63,139.322,98.3,139.322Zm-4.652,3.811.032-.158a5.324,5.324,0,0,1,1.935-2.773,4.406,4.406,0,0,1,2.685-1.014c.29,0,.492.063.492.365,0,.388-.927,1.07-3.8,2.789Zm-.54.887c-2.386,1.5-3.507,2.543-3.507,3.3,0,.277.129.436.75.436a10.28,10.28,0,0,0,3.95-1.1l-.024-.024a3.8,3.8,0,0,1-1.169-2.607Zm-2.757,3.867c-.629,0-.887-.166-.887-.571,0-.824,1.137-1.894,3.676-3.47l.1-.055.008.111a3.626,3.626,0,0,0,1.129,2.639l.161.151-.089.04A10.472,10.472,0,0,1,90.35,147.887Zm7.949-9.033a5.084,5.084,0,0,0-2.87,1.078,5.2,5.2,0,0,0-2.16,3.423v.032l-.032.016c-1.919,1.165-4.12,2.662-4.12,3.914,0,.586.443.911,1.233.911a11.384,11.384,0,0,0,4.458-1.26l.04-.016.032.016a7.674,7.674,0,0,0,4.257,1.165V147.8a7.542,7.542,0,0,1-3.845-.983l-.1-.063.532-.261a26.606,26.606,0,0,0,4.692-3.035l-.218-.253a26.186,26.186,0,0,1-4.627,3c-.081.04-.153.079-.226.111a4.2,4.2,0,0,0-.4.206l-.04.032-.282-.238a3.461,3.461,0,0,1-1.024-2.583v-.151l1.612-.967c3.3-1.973,3.853-2.4,3.934-3.066C99.138,139.1,98.839,138.855,98.3,138.855Zm-7.949,9.5c-.871,0-1.37-.372-1.37-1.038,0-1.307,2.1-2.757,4.16-4.009a5.353,5.353,0,0,1,2.2-3.486,5.259,5.259,0,0,1,2.959-1.1c.621,0,.975.3.975.832-.1.769-.846,1.284-4.007,3.177l-1.54.919v.079a3.343,3.343,0,0,0,.975,2.488l.2.166a3.217,3.217,0,0,1,.379-.19l.226-.111a26.478,26.478,0,0,0,4.652-3.019l.056-.048.387.46-.048.04a27.408,27.408,0,0,1-4.772,3.1l-.323.158a7.527,7.527,0,0,0,3.741.9h.073v.6H99.2a7.938,7.938,0,0,1-4.369-1.165A11.443,11.443,0,0,1,90.35,148.355Z" transform="translate(-17.248 -109.522)"/><path class="b" d="M54.09,111.7a12.527,12.527,0,0,1,.895-4.889,7.545,7.545,0,0,1,2.5-3.288,6.576,6.576,0,0,1,7.473,0,7.455,7.455,0,0,1,2.515,3.288,13.823,13.823,0,0,1,0,9.785,7.455,7.455,0,0,1-2.515,3.288,6.576,6.576,0,0,1-7.473,0,7.545,7.545,0,0,1-2.5-3.288A12.568,12.568,0,0,1,54.09,111.7Zm7.126,9.833a10.974,10.974,0,0,0,5.272-1.228,8.687,8.687,0,0,0,3.539-3.463,11.206,11.206,0,0,0,0-10.285,8.736,8.736,0,0,0-3.539-3.463,11.948,11.948,0,0,0-10.52,0,8.736,8.736,0,0,0-3.539,3.463,11.206,11.206,0,0,0,0,10.285,8.687,8.687,0,0,0,3.539,3.463A10.922,10.922,0,0,0,61.217,121.528Z" transform="translate(-9.921 -101.87)"/><path class="b" d="M36.276,118.172l-6.82-15.958-.008-.024H26.61l8.432,19.381.008.024h.4l8.005-19.349.024-.055h-.637Z" transform="translate(-5.158 -101.936)"/><path class="b" d="M14.616,119.983a11.38,11.38,0,0,1-4.216.832,6.949,6.949,0,0,1-3.926-1.141,7.444,7.444,0,0,1-2.636-3.2,12.775,12.775,0,0,1,0-9.556,7.475,7.475,0,0,1,2.628-3.2,6.872,6.872,0,0,1,3.91-1.133,9.873,9.873,0,0,1,3.346.61,8.273,8.273,0,0,1,2.805,1.593l.032.024.226-.285-.024-.024a8.809,8.809,0,0,0-3.176-1.91,11.8,11.8,0,0,0-4.015-.721,10.076,10.076,0,0,0-5.006,1.22A8.554,8.554,0,0,0,1.2,106.553a11.608,11.608,0,0,0,0,10.285A8.554,8.554,0,0,0,4.563,120.3a10,10,0,0,0,5.006,1.228,13.347,13.347,0,0,0,4.3-.729,9.874,9.874,0,0,0,3.458-1.9l.016-.016v-7.813H14.616v8.914Z" transform="translate(0 -101.87)"/><path class="b" d="M149.043,116.592a7.456,7.456,0,0,1-2.515,3.288,6.576,6.576,0,0,1-7.473,0,7.56,7.56,0,0,1-2.507-3.288,13.941,13.941,0,0,1,0-9.785,7.559,7.559,0,0,1,2.507-3.288,6.576,6.576,0,0,1,7.473,0,7.456,7.456,0,0,1,2.515,3.288h0a13.823,13.823,0,0,1,0,9.785Zm-.984-13.5a11.965,11.965,0,0,0-10.528,0A8.765,8.765,0,0,0,134,106.553a11.206,11.206,0,0,0,0,10.285,8.715,8.715,0,0,0,3.531,3.463,11.9,11.9,0,0,0,10.528,0,8.735,8.735,0,0,0,3.539-3.463,11.206,11.206,0,0,0,0-10.285A8.735,8.735,0,0,0,148.059,103.09Z" transform="translate(-25.732 -101.87)"/><path class="b" d="M81.343,102.673h10.3L80.488,121.024l-.008.008v.309h14.2v-.483H83.447L94.733,102.5l.008-.008v-.3h-13.4Z" transform="translate(-15.6 -101.936)"/><path class="b" d="M164.8,121.341h2.725v-9.619h6.312v-.483h-6.312v-8.565h7.691v-.483H164.8Z" transform="translate(-31.945 -101.936)"/><path class="b" d="M108.255,120.858V102.673H111.7a7.746,7.746,0,0,1,4.2,1.141,7.626,7.626,0,0,1,2.83,3.2,11.7,11.7,0,0,1,0,9.5,7.673,7.673,0,0,1-2.83,3.2,7.815,7.815,0,0,1-4.2,1.141Zm9.351-.721a8.835,8.835,0,0,0,3.716-3.367,10.13,10.13,0,0,0,0-10.007,8.9,8.9,0,0,0-3.716-3.375,12.258,12.258,0,0,0-5.522-1.2H105.53v19.151h6.554A12.156,12.156,0,0,0,117.606,120.137Z" transform="translate(-20.456 -101.936)"/><path class="b" d="M183.14,121.341h2.725v-9.619h6.312v-.483h-6.312v-8.565h7.683v-.483H183.14Z" transform="translate(-35.5 -101.936)"/></g></svg>